<svg width="416" height="174" viewBox="0 0 416 174" fill="none" xmlns="http://www.w3.org/2000/svg">
<g clip-path="url(#clip0)">
<path d="M354.29 22.8946C344.025 19.6305 339.172 14.9708 326.233 6.9866C324.074 5.65497 322.883 3.13604 323.226 0.568387C326.305 -22.3937 331.812 -40.8454 336.155 -52.6625C339.647 -62.1654 347.839 -69.014 357.586 -70.7601C371.85 -73.315 385.612 -73.5309 398.434 -72.2897C400.662 -72.0741 402.591 -70.6483 403.54 -68.5745C410.343 -53.7056 418.071 -41.4576 418.829 -24.125C418.897 -22.5697 420.988 -22.2255 421.528 -23.6837C424.492 -31.6747 429.051 -46.2265 431.322 -64.8204C431.433 -65.7306 432.33 -66.3148 433.172 -66.0143C443.123 -62.4653 457.194 -56.2011 463.912 -52.8209C464.306 -52.6232 464.581 -52.2506 464.658 -51.8082C468.048 -32.5467 471.626 -5.1724 469.703 16.9566C469.564 18.5553 471.692 19.1372 472.358 17.6816C477.606 6.22044 486.952 -15.3944 491.172 -32.5861C491.437 -33.6635 492.734 -34.0495 493.505 -33.275C496.174 -30.5906 500.73 -25.9212 502.363 -24.2571C502.572 -24.0448 502.707 -23.7739 502.752 -23.4749C505.207 -7.11218 506.424 15.7662 499.162 34.7621C498.673 36.0388 500.01 37.2192 501.164 36.5247C507.309 32.8263 519.814 23.9799 525.906 10.2541C526.384 9.17803 527.854 9.10644 528.403 10.1399C535.475 23.4496 539.272 36.9676 539.294 53.1516C539.295 53.5974 539.09 54.0156 538.744 54.2874C528.569 62.275 516.101 73.7132 499.885 75.1535C498.382 75.2875 498.088 77.4143 499.507 77.9291C505.827 80.2217 516.325 83.2664 529.881 84.4316C530.898 84.5191 531.488 85.6633 530.97 86.5687C526.627 94.1584 520.399 101.197 511.884 107.489C502.819 114.978 484.309 114.993 480.322 96.5473C479.427 92.4264 480.389 84.2837 478.576 80.3963C474.574 71.8142 470.214 67.4799 465.634 61.1659C457.446 50.451 443.943 47.4316 435.451 54.4112C426.989 61.4344 426.702 75.848 434.89 86.5648C439.801 92.6691 442.836 98.019 449.981 104.021C453.213 106.736 461.234 106.465 464.892 108.303C468.083 109.902 470.741 112.207 472.797 114.898C479.155 123.218 475.2 137.795 467.834 143.881C460.208 150.906 452.408 155.567 444.521 158.282C443.425 158.659 442.382 157.59 442.756 156.467C448.594 138.942 447.365 128.124 445.96 122.87C445.602 121.531 443.769 121.476 443.304 122.785C437.287 139.732 429.607 151.304 419.431 160.38C419.095 160.679 418.644 160.794 418.212 160.693C412.937 159.452 401.414 156.636 396.785 154.66C387.881 150.86 379.9 145.167 372.85 138.564C372.011 137.778 372.417 136.353 373.533 136.113C387.622 133.089 398.658 122.619 403.602 117.169C404.546 116.13 403.605 114.474 402.26 114.805C384.12 119.277 371.494 124.248 353.826 118.546C353.507 118.444 353.237 118.226 353.064 117.933C350.854 114.187 337.66 91.9775 332.708 83.5453C332.059 82.4404 333.064 81.0922 334.28 81.4274C356.752 87.6108 379.939 80.2935 390.216 76.2039C391.608 75.6499 391.31 73.5504 389.824 73.4417C368.899 71.9147 347.133 67.9828 329.288 60.0452C328.881 59.8639 328.586 59.4963 328.49 59.0522C326.841 51.4766 324.151 35.7963 323.077 24.916C322.987 24.0053 323.746 23.2396 324.633 23.3397C337.097 24.7494 346.842 25.4101 353.798 25.6936C355.429 25.7612 355.844 23.3892 354.29 22.8946Z" fill="#4E901E"/>
<path d="M344.476 -64.5791C354.75 -51.1339 424.928 40.7086 435.42 54.4388C435.826 54.1923 438.681 51.5212 443.652 50.8349C443.657 50.8309 443.666 50.832 443.675 50.833C451.807 49.6093 460.359 54.248 465.637 61.169C471.543 68.9965 475.036 72.8184 478.576 80.3986C479.625 82.6344 479.755 87.0128 479.744 87.1107C480.006 92.5417 479.198 98.9206 484.715 106.049C491.073 114.367 504.517 113.578 511.884 107.488C518.887 102.317 524.338 96.6418 528.468 90.5682C529.364 89.2534 530.198 87.9221 530.97 86.5698C531.487 85.6636 530.901 84.5199 529.884 84.4315C528.152 84.2847 526.469 84.1011 524.843 83.8966C513.712 82.5019 505.019 79.9314 499.509 77.9302C498.097 77.4094 498.374 75.3015 499.886 75.1526C506.009 74.6085 511.552 72.6641 516.689 69.9792C524.85 65.7237 531.975 59.6061 538.744 54.2914L538.744 54.287C539.093 54.0146 539.296 53.5993 539.297 53.1519C539.281 37.1211 535.482 23.4315 528.401 10.1402C527.857 9.10362 526.385 9.17768 525.908 10.2511C519.812 23.9789 507.309 32.8241 501.166 36.5222C500.01 37.2151 498.673 36.0364 499.164 34.7592C505.933 17.0521 505.567 -4.80473 502.755 -23.4724L502.751 -23.4773C502.672 -24.0177 503.193 -23.5295 493.504 -33.277C492.933 -33.8456 492.043 -33.8172 491.476 -33.1872C490.395 -31.9219 489.352 -20.0212 473.827 14.4473C473.351 15.5024 472.86 16.584 472.357 17.6824C471.691 19.1352 469.563 18.5516 469.705 16.9549C469.886 14.8915 470.014 12.7804 470.101 10.6362C470.963 -10.2081 467.732 -34.3463 464.659 -51.8085C464.582 -52.2508 464.307 -52.6226 463.912 -52.8219C455.608 -57.0032 441.503 -63.0318 433.171 -66.0135C432.328 -66.315 431.435 -65.7318 431.322 -64.8218C429.547 -50.2575 426.082 -36.1255 421.531 -23.6874C421.038 -22.4712 419.651 -22.5366 419.072 -23.3532L419.072 -23.3577C418.378 -24.2618 419.268 -28.2599 416.711 -37.7079C416.711 -37.7123 416.711 -37.7123 416.711 -37.7123C413.613 -48.9954 408.555 -57.6024 403.54 -68.5731C402.592 -70.6491 400.66 -72.0729 398.436 -72.29C383.333 -73.7989 366.461 -72.7126 357.508 -70.7437C352.645 -69.8594 348.169 -67.7046 344.476 -64.5791Z" fill="#5EAC24"/>
<path d="M323.181 1.13804C323.081 3.47635 324.217 5.7419 326.232 6.98871C339.172 14.9729 344.023 19.6311 354.291 22.8946C355.861 23.3914 355.397 25.7764 353.802 25.6967C346.842 25.4132 337.1 24.751 324.634 23.3432C323.751 23.2422 322.991 24.0083 323.077 24.9181C324.154 35.7974 326.845 51.4768 328.49 59.0548C328.589 59.4997 328.884 59.8646 329.29 60.0463C345.386 67.2077 364.668 71.1061 383.643 72.9228C385.711 73.1219 387.772 73.2924 389.827 73.4437C391.313 73.5529 391.609 75.6526 390.219 76.2069C389.053 76.6701 387.714 77.1789 386.232 77.7042C374.678 81.7861 354.2 86.9122 334.281 81.4301C333.075 81.0915 332.058 82.4393 332.712 83.5489C354.595 120.78 353.236 118.337 353.829 118.55C371.497 124.25 384.124 119.279 402.26 114.808C403.606 114.478 404.548 116.133 403.603 117.172C387.964 134.401 373.777 135.654 372.916 136.422C372.469 136.8 372.297 137.433 372.486 138.001C372.485 138.005 372.49 138.005 372.49 138.005C372.864 139.06 384.029 149.219 396.787 154.66C401.418 156.635 412.94 159.455 418.215 160.693C418.661 160.804 419.131 160.667 419.436 160.38C438.724 143.115 442.048 123.105 443.92 122.032C444.646 121.602 445.699 121.89 445.964 122.872C450.023 138.068 442.556 155.794 442.687 157.068C442.748 157.844 443.526 158.595 444.524 158.285C453.202 155.297 460.934 150.24 467.836 143.884C475.202 137.798 479.155 123.219 472.796 114.901C470.741 112.209 468.084 109.905 464.891 108.304C461.235 106.469 453.212 106.735 449.983 104.02C443.716 98.7902 440.348 93.5608 439.128 92.1112C438.995 91.7277 433.937 85.932 431.925 81.8321C431.925 81.8321 431.926 81.8276 431.917 81.8217C426.922 71.9114 428.132 60.4596 435.418 54.4393C435.331 54.3248 345.54 -63.1831 344.474 -64.579C340.797 -61.4702 337.895 -57.3918 336.155 -52.663C327.637 -29.4778 323.228 -1.61681 323.181 1.13804Z" fill="#4E901E"/>
<path d="M334.281 81.4289C354.2 86.9111 374.678 81.785 386.231 77.7031C398.405 99.7315 414.268 121.594 434.919 141.371C431.425 147.363 426.498 154.058 419.436 160.379C419.131 160.666 418.661 160.803 418.215 160.692C412.94 159.454 401.418 156.635 396.787 154.659C384.029 149.218 372.864 139.059 372.49 138.004C372.49 138.004 372.485 138.004 372.486 137.999C372.296 137.433 372.469 136.799 372.916 136.421C373.777 135.653 387.964 134.399 403.602 117.171C404.548 116.132 403.606 114.477 402.26 114.807C384.124 119.279 371.497 124.249 353.829 118.549C353.236 118.337 354.537 120.68 332.712 83.5477C332.057 82.4377 333.075 81.0904 334.281 81.4289Z" fill="#5EAC24"/>
<path d="M336.156 -52.6634C337.896 -57.3926 340.799 -61.471 344.475 -64.5794C344.275 -62.8452 344.152 -57.9639 344.687 -54.6972C349.116 -27.6555 356.149 20.9133 383.643 72.9223C364.668 71.1055 345.386 67.2072 329.29 60.0457C328.883 59.864 328.589 59.4991 328.49 59.0543C326.844 51.4763 324.154 35.7968 323.077 24.9176C322.99 24.0077 323.75 23.2416 324.634 23.3427C337.099 24.7504 346.842 25.4127 353.802 25.6961C355.397 25.7758 355.861 23.3909 354.291 22.894C344.023 19.6306 339.172 14.9728 326.232 6.98817C324.217 5.74136 323.081 3.47582 323.18 1.13751C323.227 -1.6169 327.637 -29.4779 336.156 -52.6634Z" fill="#5EAC24"/>
<path d="M369.611 4.31856C368.561 5.90956 368.969 8.06835 370.514 9.13564C385.377 19.3727 399.141 26.1133 411.422 29.1691C413.676 29.7244 417.231 26.8468 417.211 24.4372C417.005 -6.88213 398.931 -46.4925 383.321 -73.0222C380.732 -73.0246 378.111 -72.9562 375.465 -72.8161C379.912 -65.5376 408.736 -16.9687 410.361 21.6859C399.53 18.54 387.421 12.3895 374.314 3.36052C372.764 2.29713 370.661 2.72312 369.611 4.31856Z" fill="#47821C"/>
<path d="M328.353 -26.7529C334.084 -20.8984 345.336 -9.9466 359.36 0.950275C359.86 1.33877 360.435 1.56265 361.018 1.62936C364.444 2.02137 366.191 -2.48126 363.47 -4.59385C347.055 -17.3492 334.221 -30.5149 330.379 -34.5773C329.207 -30.346 328.534 -27.4748 328.353 -26.7529Z" fill="#47821C"/>
<path d="M342.914 100.814C344.278 103.105 345.623 105.376 346.867 107.481C367.187 105.81 415.11 100.668 436.122 88.1758C435.335 87.0889 433.804 85.3694 432.258 82.4702C411.137 94.6466 360.003 99.5004 342.914 100.814Z" fill="#47821C"/>
<path d="M388.628 150.523C390.7 151.748 392.835 152.869 395.028 153.875C400.249 148.864 409.206 139.953 417.95 129.773C419.187 128.334 419.056 126.137 417.656 124.872C416.255 123.611 414.117 123.758 412.875 125.202C403.183 136.485 393.228 146.177 388.628 150.523Z" fill="#47821C"/>
<path d="M324.697 37.6119C325.08 40.1781 325.489 42.7566 325.901 45.2327C336.799 48.4705 357.131 53.9905 375.418 56.185C375.727 56.2249 376.032 56.2598 376.337 56.2947C395.689 58.5088 416.491 57.9375 430.921 49.4479C431.262 49.249 431.61 48.9485 431.823 48.7071C440.326 39.078 446.256 23.7133 449.447 3.04672C449.737 1.14977 448.476 -0.621755 446.629 -0.912467C444.78 -1.19384 443.05 0.104875 442.756 1.99688C439.821 21.0191 434.57 35.0296 427.153 43.6644C413.669 51.3533 392.149 51.0961 371.942 48.2854C351.816 45.4843 332.989 40.1505 324.697 37.6119Z" fill="#47821C"/>
</g>
<g clip-path="url(#clip1)" filter="url(#filter0_d)">
<path d="M4.48348 84.3782C4.89515 83.0081 4.11821 81.5637 2.74815 81.1521C1.37809 80.7404 -0.0662988 81.5173 -0.47797 82.8874L-7.93193 107.695L-107.161 77.8788C-114.011 75.8204 -121.233 79.7051 -123.291 86.5554C-123.437 86.953 -123.559 87.3589 -123.657 87.771C-124.795 94.5016 -120.668 101.005 -114.094 102.843L-104.692 105.668L-100.965 93.264L-76.1577 100.718L-79.8847 113.122L-15.3859 132.502C-12.6458 133.325 -9.75699 131.771 -8.93365 129.031L-1.47969 104.224" fill="#3B97D3"/>
<path d="M7.46498 74.4553L-0.309497 100.329L-27.6755 49.4534L-7.32621 38.5283C-5.53072 51.5668 -0.439928 63.9321 7.46498 74.4553Z" fill="#95A5A5"/>
<path d="M-0.309558 100.329L-0.734433 101.743C-1.55437 104.472 -5.20327 108.515 -7.93207 107.695L-8.13052 107.635L-36.7807 54.3718L-90.0935 83.0071L-104.085 78.803L-46.2653 47.6812L-51.1838 38.5761L-56.0699 29.4537L-79.5141 -14.1312L-75.3027 -28.1472L-37.1255 42.8273L-18.8657 33.0054L-49.4074 -23.7743L-35.3665 -19.5553L-9.75316 28.0621L-7.26905 26.7259C-7.74293 30.6447 -7.76214 34.6051 -7.32629 38.5282L-27.6756 49.4533L-0.309558 100.329Z" fill="#F3D55B"/>
<path d="M-5.6605 19.1222C-6.40914 21.6159 -6.94966 24.1675 -7.27651 26.7507L-9.76062 28.0869L-35.3666 -19.5554L29.8268 0.0335769C14.7561 -4.4948 -1.13213 4.05145 -5.6605 19.1222Z" fill="#F29C1F"/>
<path d="M-8.13054 107.635L-90.0935 83.0071L-36.7808 54.3718L-8.13054 107.635Z" fill="#95A5A5"/>
<path d="M29.8267 0.0334495C14.756 -4.49492 -1.13222 4.05133 -5.66059 19.122C-6.40923 21.6158 -6.94975 24.1674 -7.2766 26.7505C-7.75048 30.6693 -7.76969 34.6297 -7.33385 38.5529C-5.53208 51.5834 -0.438898 63.9397 7.4648 74.4551C7.4648 74.4551 40.4103 63.8257 48.9152 35.5207C51.0898 28.2835 50.3004 20.4789 46.7206 13.8237C43.1408 7.16856 37.0639 2.20805 29.8267 0.0334495ZM17.9003 39.725C9.67996 37.255 5.01837 28.5887 7.4884 20.3683C9.95842 12.1479 18.6247 7.48631 26.8451 9.95633C35.0655 12.4264 39.727 21.0926 37.257 29.313C36.0709 33.2606 33.3651 36.5753 29.7351 38.5279C26.105 40.4805 21.8479 40.9111 17.9003 39.725Z" fill="#E64C3C"/>
<path d="M17.9003 39.725C26.1207 42.1951 34.7869 37.5335 37.257 29.3131C39.727 21.0927 35.0654 12.4264 26.845 9.95638C18.6246 7.48636 9.95834 12.1479 7.48832 20.3683C5.0183 28.5887 9.67989 37.255 17.9003 39.725Z" fill="#F5EFCA"/>
<path d="M17.155 42.2058C7.56448 39.3241 2.12595 29.2134 5.00764 19.623C7.88933 10.0325 18 4.59401 27.5905 7.47571C37.181 10.3574 42.6195 20.4681 39.7378 30.0585C38.354 34.664 35.1973 38.5312 30.9622 40.8092C26.7271 43.0873 21.7605 43.5896 17.155 42.2058ZM26.0997 12.4372C19.2494 10.3788 12.0274 14.2634 9.96909 21.1138C7.91074 27.9641 11.7954 35.186 18.6457 37.2443C25.4961 39.3027 32.718 35.4181 34.7763 28.5677C35.7648 25.2781 35.406 21.7305 33.7788 18.7055C32.1516 15.6804 29.3893 13.4256 26.0997 12.4372Z" fill="#C03A2B"/>
</g>
<defs>
<filter id="filter0_d" x="-134" y="-35" width="195.115" height="195.115" filterUnits="userSpaceOnUse" color-interpolation-filters="sRGB">
<feFlood flood-opacity="0" result="BackgroundImageFix"/>
<feColorMatrix in="SourceAlpha" type="matrix" values="0 0 0 0 0 0 0 0 0 0 0 0 0 0 0 0 0 0 127 0" result="hardAlpha"/>
<feOffset dy="4"/>
<feGaussianBlur stdDeviation="2"/>
<feColorMatrix type="matrix" values="0 0 0 0 0 0 0 0 0 0 0 0 0 0 0 0 0 0 0.25 0"/>
<feBlend mode="normal" in2="BackgroundImageFix" result="effect1_dropShadow"/>
<feBlend mode="normal" in="SourceGraphic" in2="effect1_dropShadow" result="shape"/>
</filter>
<clipPath id="clip0">
<rect width="223.397" height="229.236" fill="white" transform="matrix(-0.993519 -0.11367 -0.11367 0.993519 553.007 -54.6064)"/>
</clipPath>
<clipPath id="clip1">
<rect width="150.237" height="150.237" fill="white" transform="translate(-86.7671 -35) rotate(16.7242)"/>
</clipPath>
</defs>
</svg>
